<?xml version="1.0" encoding="UTF-8"?>
<svg id="Capa_1" data-name="Capa 1" xmlns="http://www.w3.org/2000/svg" viewBox="0 0 156.83 40.46">
  <defs>
    <style>
      .cls-1 {
        fill: #f6f6f6;
      }
    </style>
  </defs>
  <path class="cls-1" d="M37.28,21.38c0,5.15-1.82,9.55-5.45,13.19-3.63,3.64-8.03,5.47-13.18,5.47s-9.55-1.82-13.19-5.47C1.82,30.92,0,26.53,0,21.38s1.82-9.54,5.47-13.18c3.64-3.63,8.04-5.45,13.19-5.45h5.28V0h13.34v21.38ZM26.69,20.03c0-1.85-.65-3.43-1.95-4.73-1.3-1.3-2.87-1.95-4.7-1.95s-3.4.66-4.72,1.97c-1.31,1.31-1.97,2.89-1.97,4.72s.65,3.4,1.95,4.7c1.3,1.3,2.88,1.95,4.73,1.95s3.4-.65,4.7-1.95c1.3-1.3,1.95-2.87,1.95-4.7Z"/>
  <path class="cls-1" d="M78.29,20.03c0,5.52-1.95,10.23-5.86,14.14-3.91,3.91-8.62,5.86-14.14,5.86s-10.26-1.95-14.17-5.86c-3.91-3.91-5.86-8.62-5.86-14.14s1.96-10.23,5.88-14.15c3.92-3.92,8.64-5.88,14.15-5.88s10.23,1.95,14.14,5.86c3.91,3.91,5.86,8.63,5.86,14.17ZM64.95,20.03c0-1.85-.65-3.43-1.95-4.73-1.3-1.3-2.87-1.95-4.7-1.95s-3.4.66-4.72,1.97c-1.31,1.31-1.97,2.89-1.97,4.72s.65,3.4,1.95,4.7c1.3,1.3,2.88,1.95,4.73,1.95s3.4-.65,4.7-1.95c1.3-1.3,1.95-2.87,1.95-4.7Z"/>
  <path class="cls-1" d="M116.95,13.83h-6.11c-1.85,0-3.43.65-4.73,1.95s-1.95,2.87-1.95,4.7c0,5.52-1.95,10.22-5.86,14.12-3.91,3.9-8.63,5.85-14.17,5.85h-6.11v-13.31h6.11c1.85,0,3.43-.65,4.73-1.95,1.3-1.3,1.96-2.87,1.96-4.7,0-5.52,1.95-10.23,5.86-14.14S105.31.49,110.84.49h6.11v13.34Z"/>
  <path class="cls-1" d="M156.83,40.03h-13.34v-18.93c0-1.85-.65-3.43-1.96-4.73-1.3-1.3-2.87-1.95-4.7-1.95s-3.4.65-4.7,1.95c-1.3,1.3-1.95,2.88-1.95,4.73v18.93h-13.34v-18.93c0-5.54,1.95-10.26,5.86-14.17,3.91-3.91,8.62-5.86,14.14-5.86s10.23,1.95,14.14,5.86c3.91,3.91,5.86,8.63,5.86,14.17v18.93ZM139.61,37.31c0,.75-.27,1.39-.82,1.92-.55.53-1.2.79-1.95.79s-1.4-.26-1.94-.79c-.54-.53-.81-1.17-.81-1.92s.27-1.4.81-1.94c.54-.54,1.19-.81,1.94-.81s1.4.27,1.95.81c.55.54.82,1.19.82,1.94Z"/>
</svg>