<?xml version="1.0" encoding="UTF-8"?>
<svg id="Capa_1" data-name="Capa 1" xmlns="http://www.w3.org/2000/svg" viewBox="0 0 473.22 91.66">
  <defs>
    <style>
      .cls-1 {
        fill: #ea5297;
      }

      .cls-2 {
        fill: #f6f6f6;
      }
    </style>
  </defs>
  <g>
    <path class="cls-2" d="M76.35,25.96v38.41c0,3.62.43,6.35,1.28,8.18,1.51,3.24,4.48,4.85,8.9,4.85,5.66,0,9.54-2.3,11.63-6.9,1.09-2.49,1.63-5.79,1.63-9.88V25.96h16.89v63.72h-16.19v-9c-.16.2-.54.78-1.17,1.75-.62.97-1.36,1.83-2.22,2.57-2.6,2.34-5.12,3.94-7.55,4.79-2.43.86-5.28,1.29-8.54,1.29-9.4,0-15.74-3.39-19-10.17-1.83-3.74-2.74-9.26-2.74-16.54V25.96h17.07Z"/>
    <path class="cls-2" d="M205.2,26.19c2.73,1.09,5.2,3,7.42,5.73,1.79,2.22,3,4.95,3.62,8.18.39,2.14.58,5.28.58,9.41l-.12,40.16h-17.07v-40.57c0-2.42-.39-4.4-1.17-5.96-1.48-2.96-4.21-4.44-8.18-4.44-4.6,0-7.78,1.91-9.53,5.73-.9,2.03-1.34,4.46-1.34,7.31v37.94h-16.78v-37.94c0-3.78-.39-6.53-1.17-8.24-1.4-3.08-4.15-4.62-8.24-4.62-4.76,0-7.95,1.54-9.59,4.62-.9,1.75-1.34,4.37-1.34,7.83v38.35h-16.89V26.07h16.19v9.29c2.07-3.31,4.01-5.67,5.85-7.07,3.23-2.49,7.42-3.74,12.57-3.74,4.87,0,8.81,1.07,11.81,3.22,2.42,1.99,4.25,4.54,5.5,7.66,2.18-3.74,4.89-6.49,8.13-8.24,3.43-1.75,7.25-2.63,11.46-2.63,2.81,0,5.57.55,8.3,1.64Z"/>
    <path class="cls-2" d="M225.2,25.96h16.89v63.72h-16.89V25.96Z"/>
    <path class="cls-2" d="M302.43,29.61c4.17,3.45,6.26,9.17,6.26,17.16v42.91h-17.07v-38.76c0-3.35-.44-5.92-1.33-7.72-1.63-3.27-4.72-4.91-9.28-4.91-5.61,0-9.46,2.4-11.55,7.19-1.08,2.53-1.62,5.77-1.62,9.7v34.49h-16.66V26.07h16.13v9.29c2.13-3.27,4.15-5.63,6.05-7.07,3.41-2.57,7.74-3.86,12.98-3.86,6.56,0,11.92,1.72,16.1,5.17Z"/>
    <path class="cls-2" d="M412.94,24.47c.21.02.69.05,1.43.09v17.07c-1.05-.12-1.99-.19-2.81-.23-.82-.04-1.48-.06-1.99-.06-6.7,0-11.2,2.18-13.5,6.55-1.29,2.46-1.93,6.24-1.93,11.34v30.46h-16.78V25.96h15.9v11.11c2.57-4.25,4.81-7.15,6.72-8.71,3.12-2.61,7.17-3.92,12.16-3.92.31,0,.57.01.79.03Z"/>
    <path class="cls-2" d="M456.15,47.73c-.31-2.38-1.11-4.52-2.4-6.43-1.88-2.57-4.79-3.86-8.73-3.86-5.63,0-9.47,2.79-11.54,8.36-1.09,2.95-1.64,6.88-1.64,11.78,0,4.67.55,8.42,1.64,11.25,1.99,5.3,5.74,7.95,11.25,7.95,3.91,0,6.68-1.05,8.32-3.16s2.64-4.83,2.99-8.18h17.01c-.39,5.07-2.22,9.86-5.5,14.38-5.23,7.29-12.97,10.93-23.23,10.93-10.26,0-17.81-3.04-22.65-9.12-4.84-6.08-7.26-13.96-7.26-23.65,0-10.93,2.67-19.44,8.02-25.52,5.34-6.08,12.72-9.12,22.12-9.12,8,0,14.54,1.79,19.63,5.38,5.09,3.59,8.1,9.92,9.04,19h-17.07Z"/>
  </g>
  <circle class="cls-1" cx="233.65" cy="9.56" r="9.56"/>
  <path class="cls-2" d="M361.61,28.59c-5.44-2.77-11.66-4.15-18.67-4.15-10.76,0-18.36,2.81-22.78,8.42-2.78,3.59-4.35,8.17-4.7,13.74h16.08c.39-2.46,1.18-4.4,2.37-5.85,1.66-1.95,4.48-2.92,8.47-2.92,3.56,0,6.25.5,8.09,1.49,1.84.99,2.76,2.8,2.76,5.41,0,2.14-1.2,3.72-3.59,4.74-1.34.58-3.55,1.07-6.65,1.46l-5.71.7c-6.48.82-11.39,2.18-14.72,4.09-6.09,3.51-9.13,9.18-9.13,17.01,0,6.04,1.89,10.71,5.67,14,3.78,3.29,8.57,4.94,14.38,4.94,4.55,0,8.62-1.03,12.23-3.1,3.02-1.75,5.68-3.88,8-6.37v7.48s1.52,0,1.52,0h2.91s11.63,0,11.63,0v-32.62h.01v-12.8c0-7.68-2.72-12.9-8.16-15.67ZM353.17,64.89c-.12,5.57-1.71,9.41-4.78,11.52-3.07,2.1-6.42,3.16-10.06,3.16-2.3,0-4.24-.63-5.85-1.9-1.6-1.27-2.4-3.32-2.4-6.17,0-3.2,1.31-5.55,3.94-7.07,1.55-.9,4.1-1.66,7.66-2.28l3.79-.7c1.9-.35,3.39-.73,4.47-1.14,1.09-.41,2.16-.94,3.23-1.61v6.2Z"/>
  <path class="cls-2" d="M0,0h18.01v74.19s37.47,0,37.47,0v15.49H0V0Z"/>
</svg>