<?xml version="1.0" encoding="UTF-8"?>
<svg id="Capa_1" data-name="Capa 1" xmlns="http://www.w3.org/2000/svg" viewBox="0 0 2757.22 874.82">
  <defs>
    <style>
      .cls-1 {
        fill: #fff;
      }
    </style>
  </defs>
  <g>
    <path class="cls-1" d="M1139.65,176.02h0c48.46,0,87.79,39.34,87.79,87.79v435.12h-175.59v-435.12c0-48.46,39.34-87.79,87.79-87.79Z"/>
    <path class="cls-1" d="M2757.22,531.09c0,46.36-18.79,88.32-49.16,118.7-30.38,30.37-72.35,49.16-118.7,49.16h-215.23v.07h-301.59c-41.02,0-74.26-33.25-74.26-74.26h0c0-41.02,33.25-74.26,74.26-74.26h301.59s0,.3,0,.3h187.26c10.91,0,20.14-8.64,20.24-19.54.05-5.54-2.17-10.54-5.78-14.16-3.57-3.57-8.5-5.78-13.96-5.78h-266.02c-92.9,0-169.81-76.01-169.12-168.9.34-45.78,19.03-87.2,49.1-117.26,30.33-30.34,72.24-49.1,118.53-49.1h314.78c3.07,0,6.11.09,9.13.28,95.04,5.78,89.98,147.79-5.24,147.79h-290.69c-10.61,0-19.64,8.25-20.02,18.85-.4,11.12,8.5,20.26,19.55,20.26h267.47c92.71,0,167.86,75.16,167.86,167.86Z"/>
    <path class="cls-1" d="M2008.6,176.02h0c48.46,0,87.79,39.34,87.79,87.79v435.12h-175.59v-435.12c0-48.46,39.34-87.79,87.79-87.79Z"/>
    <path class="cls-1" d="M1713.55,550.79h27.42c81.77,0,148.16,66.39,148.16,148.16h-175.59v-148.16h0Z"/>
    <path class="cls-1" d="M1740.6,175.59h-481.49v187.46h-45.19c-41.02,0-74.27,33.25-74.27,74.27h0c0,41.02,33.25,74.27,74.27,74.27h45.19v187.36h175.59v-187.36h305.9c82.04,0,148.54-66.5,148.54-148.54v-38.92c0-82.04-66.5-148.54-148.54-148.54ZM1707.85,357.35c-3.53,3.52-8.4,5.7-13.77,5.7h-259.38v-38.92h258.89c10.75,0,19.85,8.51,19.96,19.26.05,5.46-2.14,10.4-5.7,13.96Z"/>
  </g>
  <path class="cls-1" d="M1.08,582.41L0,302.19C-.65,131.46,130.07-1.65,303,.02l306.38,2.95c152.34,1.47,267.72,141.24,266.88,290.55l-1.72,307.39c-.86,154.14-136.95,274.21-288.33,273.92l-299.69-.58C128.09,873.93,1.69,742.98,1.08,582.41ZM670.98,820.63c85.92-7.81,145.77-71.41,151.41-157.79,5.07-77.74-16.57-152.57-53.84-222.68-82.97-156.09-213.93-281-375.71-352.86-56.61-25.15-115.91-37.9-176.04-34.9C124.83,56.97,57.47,124.72,53.55,217.62c-11.51,273.02,343.75,627.9,617.43,603.01Z"/>
</svg>
