<?xml version="1.0" encoding="UTF-8"?>
<svg id="Capa_1" data-name="Capa 1" xmlns="http://www.w3.org/2000/svg" viewBox="0 0 1705.36 523.43">
  <defs>
    <style>
      .cls-1 {
        fill: #fff;
      }
    </style>
  </defs>
  <path class="cls-1" d="M87.79.43h0c48.46,0,87.79,39.34,87.79,87.79v435.12H0V88.22C0,39.77,39.34.43,87.79.43Z"/>
  <path class="cls-1" d="M1705.36,355.5c0,46.36-18.79,88.32-49.16,118.7-30.38,30.37-72.35,49.16-118.7,49.16h-215.23v.07h-301.59c-41.02,0-74.26-33.25-74.26-74.26h0c0-41.02,33.25-74.26,74.26-74.26h301.59s0,.3,0,.3h187.26c10.91,0,20.14-8.64,20.24-19.54.05-5.54-2.17-10.54-5.78-14.16-3.57-3.57-8.5-5.78-13.96-5.78h-266.02c-92.9,0-169.81-76.01-169.12-168.9.34-45.78,19.03-87.2,49.1-117.26,30.33-30.34,72.24-49.1,118.53-49.1h314.78c3.07,0,6.11.09,9.13.28,95.04,5.78,89.98,147.79-5.24,147.79h-290.69c-10.61,0-19.64,8.25-20.02,18.85-.4,11.12,8.5,20.26,19.55,20.26h267.47c92.71,0,167.86,75.16,167.86,167.86Z"/>
  <path class="cls-1" d="M956.74.43h0c48.46,0,87.79,39.34,87.79,87.79v435.12h-175.59V88.22c0-48.46,39.34-87.79,87.79-87.79Z"/>
  <path class="cls-1" d="M661.69,375.2h27.42c81.77,0,148.16,66.39,148.16,148.16h-175.59v-148.16h0Z"/>
  <path class="cls-1" d="M688.74,0H207.25v187.46h-45.19c-41.02,0-74.27,33.25-74.27,74.27h0c0,41.02,33.25,74.27,74.27,74.27h45.19v187.36h175.59v-187.36h305.9c82.04,0,148.54-66.5,148.54-148.54v-38.92C837.28,66.5,770.78,0,688.74,0ZM655.99,181.76c-3.53,3.52-8.4,5.7-13.77,5.7h-259.38v-38.92h258.89c10.75,0,19.85,8.51,19.96,19.26.05,5.46-2.14,10.4-5.7,13.96Z"/>
</svg>
